<svg xmlns="http://www.w3.org/2000/svg" viewBox="0 0 229 36" fill="none"><path d="M62 13.1C65.7 13.1 67.4 16.2 67.4 19.6 67.4 23 65.5 26.2 61.7 26.2 60.4 26.2 59.1 25.7 58.3 24.8V31.1C58.3 31.4 58 31.5 57.7 31.5H56.6C56.2 31.5 56.1 31.4 56.1 31V13.9C56.1 13.5 56.2 13.4 56.6 13.4H57.6C57.9 13.4 58.2 13.5 58.2 13.9V14.8C59 13.8 60.5 13.1 62 13.1ZM224.4 9.7C224.7 9.7 224.9 9.8 224.9 10.2V13.3H227.8C228.1 13.3 228.3 13.5 228.3 13.8V15C228.3 15.3 228.1 15.5 227.8 15.5H224.9V21.5C224.9 22.2 224.9 22.8 225.2 23.2 225.5 23.6 225.8 23.8 226.4 23.8 227.1 23.8 227.6 23.6 228.1 23.5 228.2 23.4 228.3 23.4 228.4 23.4 228.5 23.4 228.7 23.5 228.7 23.7L229 25C229 25.3 228.9 25.5 228.6 25.7 227.8 26 226.7 26.3 225.7 26.3 224.4 26.3 223.2 25.9 222.6 25.2 221.8 24.3 221.7 23.3 221.7 21.6L221.7 15.5H220.5C220 15.5 219.9 15.4 219.9 14.9V13.9C219.9 13.6 220.1 13.3 220.4 13.3H221.7V10.5C221.7 10.1 222 9.9 222.4 9.9L224.4 9.7ZM202.2 13C203.8 13 205.1 13.6 206 14.6 207.2 15.8 207.6 17.5 207.6 19.2V19.6C207.6 20.2 207.4 20.4 206.7 20.4H199.1C199.3 22.4 200.8 23.7 202.8 23.7 203.9 23.7 205 23.5 206 23.1 206.3 23 206.6 23 206.7 23.4L207 24.7C207 24.8 207.1 24.9 207.1 25 207.1 25.2 207 25.3 206.7 25.4 205.4 26 203.6 26.3 202.3 26.3 198.2 26.3 195.8 23.7 195.8 19.6 195.8 15.7 198.4 13 202.2 13ZM214 13C215.2 13 216.5 13.2 217.8 13.8 218 13.9 218.1 14 218.1 14.2 218.1 14.2 218 14.3 218 14.4L217.6 15.8C217.5 16 217.4 16.1 217.2 16.1 217.1 16.1 217 16.1 217 16.1 216.1 15.7 215 15.4 214.1 15.4 213.1 15.4 212.5 16 212.5 16.6 212.5 17.2 212.8 17.6 213.8 17.9L216.1 18.9C217.5 19.5 218.6 20.5 218.6 22.2 218.6 25 216.2 26.3 213.6 26.3 212.2 26.3 210.7 25.9 209.6 25.4 209.3 25.3 209.3 25.1 209.3 24.9 209.3 24.9 209.3 24.8 209.3 24.7L209.7 23.4C209.8 23.1 209.9 23 210.1 23 210.2 23 210.3 23 210.4 23.1 211.5 23.5 212.7 23.9 213.7 23.9 214.8 23.9 215.6 23.4 215.6 22.5 215.6 21.8 215.1 21.4 214 21L212 20.2C210.5 19.6 209.3 18.5 209.3 16.7 209.3 14.2 211.7 13 214 13ZM123 13.1C124.3 13.1 125.7 13.7 126.5 14.7L126.5 13.8C126.5 13.5 126.7 13.4 127 13.4H128.2C128.5 13.4 128.6 13.6 128.6 13.9V23C128.6 23.6 128.7 24 128.8 24.2 128.9 24.3 129 24.4 129.2 24.4H129.4C129.6 24.4 129.8 24.4 129.8 24.7V25.6C129.8 25.9 129.6 26 129.4 26H128.3C127.1 26 126.6 25.1 126.6 24H126.5C125.9 25.2 124.2 26.2 122.6 26.2 119 26.2 117.5 23.2 117.5 19.9 117.5 15.6 120 13.1 123 13.1ZM106.1 7.5C106.4 7.5 106.5 7.6 106.5 7.9V14.6C107.4 13.8 108.7 13.1 110.3 13.1 111.7 13.1 112.8 13.6 113.6 14.3 114.9 15.5 115.6 17.5 115.6 19.6 115.6 23.2 113.7 26.2 109.9 26.2 108.5 26.2 107.1 25.5 106.4 24.6L106.3 25.5C106.3 25.9 106.2 26 105.8 26H104.8C104.5 26 104.3 25.8 104.3 25.5V8.2C104.3 7.9 104.4 7.7 104.7 7.7 106.1 7.5 106.1 7.5 106.1 7.5ZM74.8 13.1C76.1 13.1 77.5 13.7 78.3 14.7L78.3 13.8C78.3 13.5 78.5 13.4 78.8 13.4H80C80.3 13.4 80.4 13.6 80.4 13.9V23C80.4 23.6 80.4 24 80.6 24.2 80.7 24.3 80.8 24.4 81 24.4H81.2C81.4 24.4 81.5 24.4 81.5 24.7V25.6C81.5 25.9 81.4 26 81.2 26H80.1C78.9 26 78.4 25.1 78.4 24H78.3C77.7 25.2 76 26.2 74.4 26.2 70.8 26.2 69.2 23.2 69.2 19.9 69.2 15.6 71.8 13.1 74.8 13.1ZM96.9 13.1C98.3 13.1 99.5 13.7 100.4 14.5 101.4 15.6 101.9 17.1 101.9 18.8V19.3C101.9 19.9 101.8 20 101.1 20H93.1C93.2 22.5 94.6 24.4 97.2 24.4 98.3 24.4 99.5 24.2 100.3 23.9 100.6 23.8 100.8 23.7 100.9 24L101.2 25C101.3 25.2 101.2 25.3 100.9 25.5 99.8 26 98.1 26.2 96.9 26.2 92.9 26.2 90.8 23.6 90.8 19.7 90.8 15.9 93.1 13.1 96.9 13.1ZM161.9 13.1C163.4 13.1 164.6 13.7 165.5 14.5 166.5 15.6 166.9 17.1 166.9 18.8V19.3C166.9 19.9 166.8 20 166.2 20H158.2C158.3 22.5 159.7 24.4 162.3 24.4 163.4 24.4 164.5 24.2 165.4 23.9 165.6 23.8 165.9 23.7 166 24L166.3 25C166.3 25.2 166.2 25.3 166 25.5 164.9 26 163.2 26.2 162 26.2 158 26.2 155.9 23.6 155.9 19.7 155.9 15.9 158.2 13.1 161.9 13.1ZM48.2 7.7C49.7 7.7 50.9 7.9 52.3 8.5 52.5 8.6 52.7 8.7 52.7 9 52.7 9 52.7 9.1 52.7 9.2L52.3 10.3C52.2 10.5 52.1 10.5 51.9 10.5 51.8 10.5 51.7 10.5 51.6 10.5 50.5 10 49.3 9.7 48.3 9.7 46.8 9.7 45.1 10.4 45.1 12.1 45.1 13.5 46.1 14.2 47.2 14.8L49.9 16.3C52 17.4 53.5 18.7 53.5 21.1 53.5 24.5 50.7 26.2 47.5 26.2 46 26.2 44.5 26 43.1 25.5 42.7 25.4 42.7 25.1 42.7 24.8L43.1 23.7C43.2 23.3 43.4 23.3 43.8 23.4 44.9 23.9 46.2 24.2 47.5 24.2 49.2 24.2 51.1 23.3 51.1 21.3 51.1 19.8 50.1 19 48.8 18.3L45.5 16.5C43.8 15.6 42.6 14.2 42.6 12.3 42.6 9.3 45.4 7.7 48.2 7.7ZM138.5 13.1C141.5 13.1 142.7 14.9 142.7 17.8V25.4C142.7 25.8 142.5 26 142.2 26H141C140.6 26 140.5 25.8 140.5 25.4V18.1C140.5 16.3 140 15 137.9 15 136.7 15 135.2 15.6 134.3 16.5V25.4C134.3 25.8 134.2 26 133.8 26H132.6C132.3 26 132.1 25.8 132.1 25.4V13.9C132.1 13.6 132.2 13.4 132.6 13.4H133.7C134.1 13.4 134.2 13.5 134.2 13.9L134.3 14.7C135.5 13.7 137 13.1 138.5 13.1ZM89 13.1C89.2 13.1 89.5 13.1 89.8 13.2 90 13.2 90 13.5 90 13.6L89.8 14.8C89.8 15 89.7 15.1 89.5 15.1 89.3 15.1 89.2 15 88.7 15 87.8 15 86.8 15.6 86.1 16.5V25.4C86.1 25.7 86 26 85.6 26H84.4C84.1 26 83.9 25.8 83.9 25.4V13.9C83.9 13.5 84.1 13.4 84.4 13.4H85.5C85.8 13.4 86 13.5 86 13.9L86.1 14.8C86.7 13.9 87.7 13.1 89 13.1ZM175.8 13.1C178.8 13.1 180 14.9 180 17.8V25.4C180 25.8 179.8 26 179.5 26H178.2C177.9 26 177.7 25.8 177.7 25.4V18.1C177.7 16.3 177.3 15 175.2 15 174 15 172.5 15.6 171.6 16.5V25.4C171.6 25.8 171.4 26 171.1 26H169.9C169.6 26 169.4 25.8 169.4 25.4V13.9C169.4 13.6 169.5 13.4 169.9 13.4H171C171.3 13.4 171.5 13.5 171.5 13.9L171.6 14.7C172.7 13.7 174.3 13.1 175.8 13.1ZM183.4 8C184 8 184.2 8.1 184.4 8.5L189 21.4H189L193.4 8.6C193.5 8.1 193.8 8 194.4 8H196.2C196.7 8 196.8 8.3 196.6 8.6L190.5 25.4C190.4 25.7 190.1 26 189.7 26H188C187.5 26 187.2 25.7 187.1 25.3L180.7 8.7C180.5 8.3 180.6 7.9 181.1 8H183.4ZM147.6 7.4C147.9 7.4 148.1 7.6 148.1 7.9V18.4H148.1L152.1 13.7C152.3 13.5 152.5 13.4 152.7 13.4H154.4C154.7 13.4 154.7 13.6 154.5 13.8L150.4 18.5 155.1 25.3C155.3 25.6 155.3 26 154.8 26H153.3C153 26 152.7 25.8 152.5 25.5L148.6 19.7 148.1 20.3V25.4C148.1 25.8 147.9 26 147.5 26H146.3C146 26 145.9 25.8 145.9 25.4V8.2C145.9 7.8 146 7.7 146.3 7.7 147.5 7.5 147.6 7.4 147.6 7.4ZM61.6 14.9C60.4 14.9 58.9 15.6 58.3 16.5V22.7C58.8 23.7 60.2 24.5 61.4 24.5 64.1 24.5 65 21.9 65 19.6 65 17.4 64.3 14.9 61.6 14.9ZM109.8 14.9C108.7 14.9 107.4 15.6 106.5 16.5V22.7C107.2 23.7 108.4 24.4 109.6 24.4 112.2 24.4 113.3 22.2 113.3 19.7 113.3 17 112.3 14.9 109.8 14.9ZM75.1 14.9C73.1 14.9 71.6 16.6 71.6 19.7 71.6 22.6 72.9 24.4 74.8 24.4 76.4 24.4 77.7 23 78.2 21.7V16.8C77.6 15.6 76.3 14.9 75.1 14.9ZM123.3 14.9C121.3 14.9 119.8 16.6 119.8 19.7 119.8 22.6 121.1 24.4 123 24.4 124.6 24.4 126 23 126.4 21.7V16.8C125.8 15.6 124.5 14.9 123.3 14.9ZM161.8 14.8C159.7 14.8 158.4 16.6 158.2 18.5H164.8V18.1C164.8 16.4 163.8 14.8 161.8 14.8ZM96.8 14.8C94.6 14.8 93.4 16.6 93.2 18.5H99.7V18.1C99.7 16.4 98.7 14.8 96.8 14.8ZM202.1 15.4C200.4 15.4 199.4 16.8 199.1 18.3H204.5V18C204.4 16.7 203.6 15.4 202.1 15.4Z" fill="#575756"/><path d="M32.4 11C32.4 9.6 32.4 8.4 32.3 7.3 32.3 7.3 32.3 7.2 32.3 7.2 32.3 7.2 32.3 7.2 32.3 7.2 32.3 7 32.2 6.9 32.2 6.8L32.1 7C31.3 8.4 30.5 9.6 29.6 10.7 21.1 20.7 14.6 21.2 13.4 21.2 12.7 21.2 12.4 21.1 12.2 21 11.6 20.8 11 20 10.7 18.9 10.1 17.1 9.2 12.1 13.8 3.8 14.1 3.3 14.4 2.8 14.8 2.3L14.9 2C14.8 2.1 14.7 2.1 14.6 2.1V2.1C13.7 2.4 12.9 2.7 12 3 11.9 3 11.8 3.1 11.7 3.1 7.8 9.4 5.9 16.5 6.3 23.8 6.4 25.6 6.6 27.3 6.9 28.9L7 29.2 7.2 29.1C8.5 28.7 9.7 28.3 11 27.8 19.4 24.4 26.8 18.7 32.4 11.5 32.4 11.3 32.4 11.2 32.4 11Z" fill="white"/><path d="M12 3C8.2 9.1 6.2 16.3 6.5 23.8 6.6 25.5 6.8 27.2 7.1 28.9 8.4 28.5 9.7 28 10.9 27.5 19.7 24 27 18.2 32.4 11 32.4 11.3 32.4 11.5 32.4 11.7 32.2 15.2 31.8 18.7 31.1 22.1 30.5 25.3 28.5 28.1 25.7 29.7 20.8 32.6 15.4 34.6 9.6 35.7 6 36.3 3 36 2 35.1 1 34.3 0.1 31.4 0 27.7 -0.1 21.8 0.9 16.1 2.8 10.8 3.9 7.7 6.3 5.3 9.3 4 10.2 3.7 11.1 3.3 12 3ZM19.3 0.8C25.3-0.6 28.5 0 30 1.2 31 2.1 32 3.9 32.3 7.2 31.5 8.6 30.7 9.7 29.8 10.8 21.2 21 13.9 22.1 12.1 21.3 10.2 20.4 7.8 14.1 13.6 3.7 13.9 3.2 14.2 2.7 14.6 2.1 16.1 1.7 17.7 1.2 19.3 0.8Z" fill="#DD1D1F"/></svg>